<svg width="114" height="41" viewBox="0 0 114 41" fill="none" xmlns="http://www.w3.org/2000/svg">
<path d="M20 0.5C9 0.5 0 9.5 0 20.5C0 31.5 9 40.5 20 40.5C31 40.5 40 31.5 40 20.5C40 9.5 31 0.5 20 0.5ZM11.8 28C9.6 28 7.8 26.2 7.8 24C7.8 21.8 9.6 20 11.8 20C14 20 15.8 21.8 15.8 24C15.8 26.2 14 28 11.8 28ZM28.5 26.9C26.7 28 24.3 27.3 23.2 25.5L17.6 15.8C16.5 14 17.2 11.6 19 10.5C20.8 9.4 23.2 10.1 24.3 11.9L29.9 21.6C31 23.5 30.3 25.9 28.5 26.9Z" fill="#CAD5DC"/>
<path d="M55.5 30V31.5H57H60.8432H62.3432V30V17.8278C62.3432 17.151 62.4809 16.6226 62.71 16.1989C62.9727 15.7295 63.2922 15.4001 63.6642 15.1696L63.6642 15.1696L63.669 15.1666C64.0473 14.9302 64.4445 14.8162 64.892 14.8162C65.6345 14.8162 66.108 15.0298 66.4545 15.3674C66.7895 15.6939 67.0039 16.1449 67.0039 16.8766V30V31.5H68.5039H72.3342H73.8342V30V17.4165C73.8342 16.5252 74.0825 15.9245 74.4847 15.4826L74.4847 15.4827L74.4903 15.4765C74.8419 15.0857 75.3721 14.8162 76.2931 14.8162C76.9831 14.8162 77.5089 15.0116 77.9488 15.3738C78.2046 15.5845 78.4949 16.0375 78.4949 17.1208V30V31.5H79.9949H83.838H85.338V30V16.7609C85.338 14.2667 84.7088 12.1212 83.1831 10.6171C81.7356 9.18158 79.8778 8.5 77.7455 8.5C76.0966 8.5 74.5892 8.86945 73.2859 9.67207C72.7236 10.0146 72.2224 10.4137 71.7864 10.8681C71.4061 10.4242 70.9684 10.0302 70.4732 9.69025C69.2815 8.86623 67.8621 8.5 66.3059 8.5C64.7859 8.5 63.3918 8.8568 62.1889 9.63175V8.75707H60.6889H57H55.5V10.2571V30Z" stroke="white" stroke-width="3"/>
</svg>
